<svg width="174" height="26" viewBox="0 0 174 26" fill="none" xmlns="http://www.w3.org/2000/svg">
<path d="M56.952 16.872H52.504L51.768 19H49.416L53.432 7.816H56.04L60.056 19H57.688L56.952 16.872ZM56.344 15.08L54.728 10.408L53.112 15.08H56.344ZM63.7971 11.416C64.0851 11.0107 64.4798 10.6747 64.9811 10.408C65.4931 10.1307 66.0745 9.992 66.7251 9.992C67.4825 9.992 68.1651 10.1787 68.7731 10.552C69.3918 10.9253 69.8771 11.4587 70.2291 12.152C70.5918 12.8347 70.7731 13.6293 70.7731 14.536C70.7731 15.4427 70.5918 16.248 70.2291 16.952C69.8771 17.6453 69.3918 18.184 68.7731 18.568C68.1651 18.952 67.4825 19.144 66.7251 19.144C66.0745 19.144 65.4985 19.0107 64.9971 18.744C64.5065 18.4773 64.1065 18.1413 63.7971 17.736V23.224H61.5571V10.136H63.7971V11.416ZM68.4851 14.536C68.4851 14.0027 68.3731 13.544 68.1491 13.16C67.9358 12.7653 67.6478 12.4667 67.2851 12.264C66.9331 12.0613 66.5491 11.96 66.1331 11.96C65.7278 11.96 65.3438 12.0667 64.9811 12.28C64.6291 12.4827 64.3411 12.7813 64.1171 13.176C63.9038 13.5707 63.7971 14.0347 63.7971 14.568C63.7971 15.1013 63.9038 15.5653 64.1171 15.96C64.3411 16.3547 64.6291 16.6587 64.9811 16.872C65.3438 17.0747 65.7278 17.176 66.1331 17.176C66.5491 17.176 66.9331 17.0693 67.2851 16.856C67.6478 16.6427 67.9358 16.3387 68.1491 15.944C68.3731 15.5493 68.4851 15.08 68.4851 14.536ZM74.6409 11.416C74.9289 11.0107 75.3235 10.6747 75.8249 10.408C76.3369 10.1307 76.9182 9.992 77.5689 9.992C78.3262 9.992 79.0089 10.1787 79.6169 10.552C80.2355 10.9253 80.7209 11.4587 81.0729 12.152C81.4355 12.8347 81.6169 13.6293 81.6169 14.536C81.6169 15.4427 81.4355 16.248 81.0729 16.952C80.7209 17.6453 80.2355 18.184 79.6169 18.568C79.0089 18.952 78.3262 19.144 77.5689 19.144C76.9182 19.144 76.3422 19.0107 75.8409 18.744C75.3502 18.4773 74.9502 18.1413 74.6409 17.736V23.224H72.4009V10.136H74.6409V11.416ZM79.3289 14.536C79.3289 14.0027 79.2169 13.544 78.9929 13.16C78.7795 12.7653 78.4915 12.4667 78.1289 12.264C77.7769 12.0613 77.3929 11.96 76.9769 11.96C76.5715 11.96 76.1875 12.0667 75.8249 12.28C75.4729 12.4827 75.1849 12.7813 74.9609 13.176C74.7475 13.5707 74.6409 14.0347 74.6409 14.568C74.6409 15.1013 74.7475 15.5653 74.9609 15.96C75.1849 16.3547 75.4729 16.6587 75.8249 16.872C76.1875 17.0747 76.5715 17.176 76.9769 17.176C77.3929 17.176 77.7769 17.0693 78.1289 16.856C78.4915 16.6427 78.7795 16.3387 78.9929 15.944C79.2169 15.5493 79.3289 15.08 79.3289 14.536ZM85.4846 9.64V12.44H89.2446V14.216H85.4846V17.176H89.7246V19H83.2446V7.816H89.7246V9.64H85.4846ZM95.4563 16.936L97.6963 10.136H100.08L96.8003 19H94.0803L90.8163 10.136H93.2163L95.4563 16.936ZM109.578 14.376C109.578 14.696 109.557 14.984 109.514 15.24H103.034C103.088 15.88 103.312 16.3813 103.706 16.744C104.101 17.1067 104.586 17.288 105.162 17.288C105.994 17.288 106.586 16.9307 106.938 16.216H109.354C109.098 17.0693 108.608 17.7733 107.882 18.328C107.157 18.872 106.266 19.144 105.21 19.144C104.357 19.144 103.589 18.9573 102.906 18.584C102.234 18.2 101.706 17.6613 101.322 16.968C100.949 16.2747 100.762 15.4747 100.762 14.568C100.762 13.6507 100.949 12.8453 101.322 12.152C101.696 11.4587 102.218 10.9253 102.89 10.552C103.562 10.1787 104.336 9.992 105.21 9.992C106.053 9.992 106.805 10.1733 107.466 10.536C108.138 10.8987 108.656 11.416 109.018 12.088C109.392 12.7493 109.578 13.512 109.578 14.376ZM107.258 13.736C107.248 13.16 107.04 12.7013 106.634 12.36C106.229 12.008 105.733 11.832 105.146 11.832C104.592 11.832 104.122 12.0027 103.738 12.344C103.365 12.6747 103.136 13.1387 103.05 13.736H107.258ZM116.125 10.008C117.181 10.008 118.035 10.344 118.685 11.016C119.336 11.6773 119.661 12.6053 119.661 13.8V19H117.421V14.104C117.421 13.4 117.245 12.8613 116.893 12.488C116.541 12.104 116.061 11.912 115.453 11.912C114.835 11.912 114.344 12.104 113.981 12.488C113.629 12.8613 113.453 13.4 113.453 14.104V19H111.213V10.136H113.453V11.24C113.752 10.856 114.131 10.5573 114.589 10.344C115.059 10.12 115.571 10.008 116.125 10.008ZM124.4 11.976V16.264C124.4 16.5627 124.469 16.7813 124.608 16.92C124.757 17.048 125.002 17.112 125.344 17.112H126.384V19H124.976C123.088 19 122.144 18.0827 122.144 16.248V11.976H121.088V10.136H122.144V7.944H124.4V10.136H126.384V11.976H124.4ZM131.387 19.144C130.661 19.144 130.011 19.016 129.435 18.76C128.859 18.4933 128.4 18.136 128.059 17.688C127.728 17.24 127.547 16.744 127.515 16.2H129.771C129.813 16.5413 129.979 16.824 130.267 17.048C130.565 17.272 130.933 17.384 131.371 17.384C131.797 17.384 132.128 17.2987 132.363 17.128C132.608 16.9573 132.731 16.7387 132.731 16.472C132.731 16.184 132.581 15.9707 132.283 15.832C131.995 15.6827 131.531 15.5227 130.891 15.352C130.229 15.192 129.685 15.0267 129.259 14.856C128.843 14.6853 128.48 14.424 128.171 14.072C127.872 13.72 127.723 13.2453 127.723 12.648C127.723 12.1573 127.861 11.7093 128.139 11.304C128.427 10.8987 128.832 10.5787 129.355 10.344C129.888 10.1093 130.512 9.992 131.227 9.992C132.283 9.992 133.125 10.2587 133.755 10.792C134.384 11.3147 134.731 12.024 134.795 12.92H132.651C132.619 12.568 132.469 12.2907 132.203 12.088C131.947 11.8747 131.6 11.768 131.163 11.768C130.757 11.768 130.443 11.8427 130.219 11.992C130.005 12.1413 129.899 12.3493 129.899 12.616C129.899 12.9147 130.048 13.144 130.347 13.304C130.645 13.4533 131.109 13.608 131.739 13.768C132.379 13.928 132.907 14.0933 133.323 14.264C133.739 14.4347 134.096 14.7013 134.395 15.064C134.704 15.416 134.864 15.8853 134.875 16.472C134.875 16.984 134.731 17.4427 134.443 17.848C134.165 18.2533 133.76 18.5733 133.227 18.808C132.704 19.032 132.091 19.144 131.387 19.144Z" fill="black"/>
<path d="M20.1369 25.5737C22.8983 25.5737 25.1842 23.3162 24.6732 20.6025C24.3528 18.9011 23.8679 17.2331 23.2235 15.6239C21.9602 12.4695 20.1087 9.60318 17.7745 7.1889C15.4403 4.77458 12.6692 2.85943 9.61949 1.55281C8.11383 0.907744 6.55481 0.417221 4.96489 0.0858795C2.26154 -0.477499 0 1.81226 0 4.57368V20.5737C0 23.3351 2.23858 25.5737 5 25.5737H20.1369Z" fill="#615DFF"/>
<g style="mix-blend-mode:multiply">
<path d="M13.7013 25.5737C10.9399 25.5737 8.65392 23.3162 9.16499 20.6025C9.48541 18.9011 9.97029 17.2331 10.6147 15.6239C11.878 12.4695 13.7295 9.60318 16.0637 7.1889C18.3979 4.77458 21.169 2.85943 24.2187 1.55281C25.7244 0.907744 27.2834 0.417221 28.8733 0.0858795C31.5767 -0.477499 33.8382 1.81226 33.8382 4.57368V20.5737C33.8382 23.3351 31.5996 25.5737 28.8382 25.5737H13.7013Z" fill="#3DD9EB"/>
</g>
</svg>
